<svg width="501" height="429" viewBox="0 0 501 429" fill="none" xmlns="http://www.w3.org/2000/svg">
<circle cx="254" cy="205" r="205" fill="#EAF5EB"/>
<path fill-rule="evenodd" clip-rule="evenodd" d="M140.209 270.567C142.812 290.086 145.414 309.605 148.017 329.124L150.118 344.887C150.384 346.876 150.133 350.799 151.144 352.58C151.501 353.208 152.439 353.506 153.129 353.877C155.504 355.152 157.879 356.427 160.254 357.702C180.342 368.487 200.43 379.272 220.518 390.057C239.797 400.407 259.076 410.758 278.354 421.108C280.349 422.18 283.576 424.975 285.73 424.238C287.777 423.538 289.869 421.812 291.728 420.723C295.296 418.632 298.863 416.542 302.431 414.451C324.02 401.799 345.609 389.146 367.197 376.494C376.105 371.274 385.012 366.055 393.919 360.834C396.356 359.406 398.793 357.978 401.23 356.55C402.505 355.803 402.671 355.829 403.172 354.561C405.048 349.821 405.917 344.391 407.244 339.473C408.706 334.053 410.169 328.633 411.632 323.213C412.284 320.794 411.978 320.482 410.914 318.148C408.809 313.527 406.704 308.906 404.599 304.286C399.927 294.031 395.256 283.775 390.583 273.52C388.694 269.373 384.143 266.455 380.867 263.405L329.998 216.044C328.706 214.841 327.414 213.638 326.122 212.435C325.909 219.665 324.48 227.438 326.576 234.422C330.015 245.885 333.453 257.347 336.892 268.81C338.554 274.35 340.216 279.89 341.878 285.43C342.187 286.46 344.067 290.542 343.565 291.447C343.286 291.949 340.911 292.457 340.397 292.652C338.187 293.493 335.978 294.333 333.768 295.174C327.611 297.516 321.455 299.859 315.298 302.2C309.761 304.307 304.223 306.414 298.686 308.52C296.808 309.235 294.603 310.558 292.62 310.448C290.846 310.349 288.829 309.471 287.112 309.029C284.094 308.252 281.076 307.474 278.058 306.696C272.13 305.17 266.201 303.643 260.272 302.115C253.603 300.397 247.97 295.351 242.266 291.617C232.461 285.197 222.657 278.777 212.853 272.358C210.608 270.888 210.6 270.05 209.705 267.366C207.695 261.336 205.685 255.306 203.675 249.275C202.602 246.055 201.282 242.822 200.471 239.525C199.134 234.085 198.341 228.453 197.282 222.953C196.963 221.293 196.643 219.633 196.324 217.974C192.218 219.64 188.112 221.307 184.005 222.973C183.41 223.214 180.51 223.935 180.253 224.526C180.089 224.9 180.952 226.598 181.075 226.962C184.48 237.046 187.884 247.129 191.289 257.212C192.361 260.384 193.431 263.556 194.502 266.728C191.943 262.706 189.384 258.684 186.824 254.663C184.814 261.426 182.803 268.191 180.792 274.954C176.039 269.47 171.286 263.986 166.533 258.502C164.888 263.986 163.242 269.47 161.597 274.954C156.479 268.191 151.36 261.426 146.242 254.663C145.633 258.192 145.025 261.722 144.416 265.252C144.232 266.317 144.269 269.373 143.56 270.217C142.976 270.911 141.294 270.567 140.209 270.567Z" fill="#079911"/>
<path fill-rule="evenodd" clip-rule="evenodd" d="M464.286 312.759C463.998 321.948 464.198 333.875 459.17 341.954C458.358 343.257 455.609 347.319 455.302 343.746C455.001 340.238 455.864 336.765 455.009 333.216C454.551 331.318 453.013 327.171 450.384 328.886C449.044 329.76 448.691 331.918 448.166 333.28C447.391 335.296 446.522 337.279 445.706 339.279C442.854 346.261 439.899 354.593 433.56 359.214C434.39 353.193 436.651 346.765 435.13 340.679C434.613 338.605 433.043 334.817 430.341 336.033C427.708 337.217 426.001 342.5 424.758 344.853C420.99 351.986 417.136 358.985 412.894 365.852C410.761 369.305 408.456 372.462 405.664 375.416C403.918 377.265 401.742 380.388 398.99 380.663C398.99 375.397 400.723 370.309 402.306 365.349C404.007 360.016 405.559 354.638 407.229 349.295C408.678 344.661 409.868 340.062 410.832 335.309C411.232 333.344 411.548 331.309 413.223 330.039C414.729 328.898 417.108 328.355 418.788 327.517C423.197 325.314 427.732 322.937 431.828 320.199C433.51 319.074 434.958 317.622 436.719 316.614C438.725 315.465 440.599 314.498 442.455 313.098C450.465 307.056 457.686 299.624 462.552 290.777C463.341 294.331 464.388 297.804 464.504 301.468C464.621 305.225 464.404 309.005 464.286 312.759ZM398.362 354.992C397.081 352.829 395.129 353.715 393.409 354.758C390.741 356.377 388.065 357.983 385.383 359.582C379.924 362.834 374.567 366.256 369.234 369.709C358.378 376.735 347.144 382.487 335.699 388.435C324.637 394.183 314.013 401.023 303.649 407.937C301.158 409.599 298.685 411.3 296.293 413.102C294.17 414.702 292.472 416.948 290.238 418.372C287.91 419.855 286.31 418.652 284.084 417.558C281.301 416.191 278.399 415.044 275.554 413.811C264.07 408.832 252.554 403.665 241.384 398.014C230.28 392.398 219.76 385.927 209.121 379.5C204.055 376.439 199.075 373.184 194.077 370.011C188.758 366.635 183.252 364.105 177.673 361.234C175.204 359.964 173.018 358.239 170.482 357.084C167.817 355.87 165.001 355 162.615 353.248C161.545 352.463 160.642 351.525 159.419 350.969C158.415 350.513 157.275 350.437 156.284 349.952C154.267 348.967 153.689 346.969 153.299 344.889C150.787 331.543 149.451 317.826 147.995 304.331C147.177 296.742 146.264 289.183 145.133 281.634C144.623 278.23 145.648 275.593 146.187 272.283C146.816 268.416 147.064 264.468 147.485 260.575C149.473 264.257 151.191 268.121 153.72 271.481C155.584 273.957 158.768 277.468 162.201 277.386C167.536 277.257 167.292 268.106 167.507 264.474C169.937 266.643 170.674 270.177 172.691 272.696C174.532 274.996 177.039 277.85 179.867 278.88C185.822 281.049 185.248 269.996 184.921 266.861C184.757 265.289 183.869 262.801 185.975 263.518C187.915 264.178 189.802 266.915 191.433 268.171C194.251 270.341 197.343 272.145 200.234 274.217C203.821 276.788 207.692 278.646 211.349 281.04C213.637 282.538 216.132 282.874 218.626 283.975C222.279 285.589 225.506 287.995 228.984 289.93C235.87 293.759 243.51 297.193 251.042 299.502C253.479 300.249 256.727 302.355 258.576 300.191C259.714 298.859 260.462 296.825 261.429 295.333C262.651 293.443 263.949 291.603 265.297 289.8C270.089 283.394 275.407 277.345 281.313 271.942C288.184 265.657 295.698 260 303.734 255.289C307.187 253.265 321.605 244.193 324.774 250.578C322.17 250.416 319.912 251.368 317.685 252.561C317.142 252.852 314.339 254.854 314.995 253.09C314.18 253.242 313.466 254.304 312.85 254.776C311.784 255.592 310.168 256.534 308.934 257.21C307.714 257.877 306.207 258.041 305.096 258.85C304.69 259.146 304.444 259.625 304.057 259.945L302.947 259.954C302.78 260.568 302.614 261.183 302.448 261.797C301.821 259.786 300.926 262.402 299.878 263.251C299.247 263.762 298.25 264.288 297.508 264.617C296.953 264.864 296.868 264.291 296.329 264.727C295.851 265.113 295.546 265.965 295.032 266.45C294.401 267.043 293.593 267.504 292.889 268.011C291.541 268.982 290.115 269.744 288.75 270.664C286.913 271.903 285.949 274.032 284.165 275.327C283.32 275.94 282.008 276.012 281.551 276.405C280.404 277.391 280.782 278.884 278.643 278.95C278.838 279.262 278.954 279.6 278.994 279.964C278.485 279.877 278.032 279.665 277.636 279.33C277.724 281.464 275.627 282.225 274.369 283.539C273.644 284.296 272.741 285.36 272.23 286.271C272.145 286.423 271.982 287.639 271.947 287.656C271.753 287.749 270.571 286.711 270.683 286.798C270.354 288.769 268.446 290.632 267.611 292.457C267.171 293.418 266.724 294.963 265.857 295.64C265.621 295.823 264.896 295.631 264.296 296.27C263.857 296.739 263.349 297.605 263.171 298.226C263.052 298.641 263.195 299.715 263.024 299.964C262.71 300.419 262.222 299.962 261.73 300.298C260.822 300.92 260.799 301.892 259.47 302.02C260.386 304.245 265.916 304.931 267.926 305.564C273.611 307.353 279.574 309.14 284.888 311.88C286.262 312.588 287.562 313.172 287.806 314.805C288.145 317.077 286.988 320.097 286.767 322.392C286.168 328.588 286.046 334.968 286.171 341.19C286.29 347.085 286.48 353.035 286.755 358.922C287.01 364.38 288.11 369.73 288.704 375.15C288.867 376.638 288.758 383.347 291.316 383.009C293.452 382.727 292.103 378.145 292.063 376.831C291.974 373.924 292.586 370.956 292.56 368.023C292.548 366.613 293.164 365.399 293.224 364.049C293.282 362.716 292.62 361.663 292.818 360.281C293.009 358.955 296.929 351.327 293.164 352.221C293.385 351.13 293.578 350.031 293.869 348.957C294.272 349.318 294.596 349.741 294.841 350.224C295.176 347.881 295.064 345.543 295.272 343.199C295.365 342.136 295.796 340.973 295.649 339.903C295.677 339.459 295.62 339.024 295.48 338.597C295.248 338.352 294.962 338.223 294.621 338.21C294.442 337.624 294.396 337.463 294.714 336.888C294.85 336.498 295.121 336.254 295.526 336.158C296.299 336.066 296.387 335.622 295.791 334.827C296.102 333.256 296.142 332.264 295.917 330.697C295.729 329.38 296.423 326.831 295.716 325.658C294.89 324.288 294.48 325.617 294.327 323.717C294.294 323.315 294.267 322.477 294.429 322.077C294.606 321.64 295.139 321.819 295.207 321.664C295.669 320.608 295.7 318.529 294.064 318.71C294.128 317.956 294.192 317.202 294.256 316.448C295.438 317.808 295.025 316.657 295.695 315.9C296.598 314.881 297.48 314.706 298.771 314.303C302.21 313.23 305.524 311.616 308.884 310.306C316 307.533 323.249 305.057 330.157 301.78C344.686 294.886 358.927 287.404 373.545 280.691C372.5 278.753 373.15 278.659 373.913 276.839C374.932 277.547 374.718 277.053 375.443 277.01C375.377 276.403 375.565 276.22 376.009 276.46C376.361 276.568 376.723 276.607 377.093 276.575C377.998 276.73 378.737 277.228 379.56 277.417C379.83 277.617 380.127 277.766 380.45 277.866C380.741 277.8 380.989 277.656 381.194 277.434C382.525 277.681 382.974 278.684 383.033 280.136C383.043 280.389 382.269 280.648 382.491 280.988C382.877 281.581 383.918 281.439 384.514 281.515C384.383 282.132 384.253 282.747 384.123 283.363C386.736 282.157 386.054 285.932 386.847 287.172C387.068 287.518 387.56 287.242 387.816 287.643C388.149 288.166 388.049 288.907 388.334 289.428C388.977 290.606 389.621 290.463 390.262 291.813C393.612 298.859 398.069 305.424 401.285 312.622C402.816 316.048 404.197 319.533 405.796 322.929C407.267 326.054 408.107 328.711 407.059 332.124C404.627 340.042 402.026 348.103 398.84 355.751C398.681 355.498 398.522 355.245 398.362 354.992ZM228.741 414.091C228.513 414.479 228.285 414.867 228.057 415.256C227.55 412.341 228.9 413.693 228.741 414.091ZM218.015 408.633C217.284 408.414 217.6 407.22 217.624 406.71C218.086 407.286 218.539 407.873 218.924 408.506C218.621 408.548 218.318 408.591 218.015 408.633ZM188.618 397.428C189.386 396.997 189.938 396.688 190.809 396.2C189.924 397.924 189.924 397.924 188.618 397.428ZM142.371 245.551C141.198 248.43 144.775 266.208 141.445 266.788C140.967 265.228 140.907 260.932 138.93 260.419C136.477 259.782 136.719 264.205 136.384 265.573C131.348 262.069 129.111 255.303 126.705 249.94C123.638 243.105 121.225 235.996 118.921 228.874C116.95 222.785 115.321 216.589 113.33 210.51C112.079 206.692 110.73 202.864 109.889 198.929C109.706 198.074 108.987 195.906 109.598 195.093C110.486 193.911 113.682 195.265 114.712 195.575C121.394 197.586 128.325 198.451 135.189 199.619C142.816 200.916 150.426 202.257 158.099 203.263C160.016 203.514 161.934 203.752 163.854 203.984C165.099 204.134 166.983 203.984 168.165 204.542C170.559 205.671 171.068 209.993 171.957 212.234C175.273 220.599 179.176 228.699 182.668 236.988C185.814 244.454 188.198 252.398 192.72 259.197C189.348 257.702 185.074 249.798 181.306 254.354C179.686 256.313 180.094 258.894 180.224 261.238C180.411 264.627 180.47 268.042 180.47 271.436C176.783 270.478 174.305 266.292 172.369 263.327C169.724 259.277 168.059 255.461 166.888 250.818C166.381 248.807 165.036 248.757 163.841 247.554C163.073 246.781 162.687 245.739 161.586 246.864C160.202 248.277 161.123 252.193 161.362 253.862C161.929 257.834 163.791 263.947 161.981 267.68C159.539 272.717 152.993 260.043 152.227 258.212C151.837 257.28 144.873 239.41 142.371 245.551ZM137.798 159.225C138.211 159.288 138.623 159.351 139.035 159.414C138.703 159.708 138.011 160.737 137.446 160.465C137.564 160.052 137.681 159.639 137.798 159.225ZM159.642 154.538C159.513 154.68 159.383 154.821 159.254 154.963C158.662 154.224 158.872 153.147 158.872 152.292C159.653 152.764 159.844 153.708 159.642 154.538ZM161.407 162.74V165.156C159.77 164.447 159.737 164.08 161.407 162.74ZM163.396 165.812C162.248 165.497 162.111 165.244 162.273 163.48C162.748 164.468 163.061 165.119 163.396 165.812ZM170 183.707C169.519 184.944 166.708 181.996 166.811 181.114C166.909 180.272 167.341 180.021 167.937 180.562C168.133 180.741 167.841 181.389 167.967 181.614C168.42 182.428 169.335 183.093 170 183.707ZM170.031 191.161C169.327 192.919 168.072 190.15 169.911 190.075C170.032 190.428 170.072 190.79 170.031 191.161ZM168.665 188.389C168.392 188.025 168.127 187.657 167.87 187.282C168.818 187.473 169.57 188.854 170.57 187.933C170.452 189.338 169.454 189.377 168.665 188.389ZM107.382 165.551C105.858 163.887 115.796 162.72 116.995 162.434C125.695 160.359 133.909 157.357 142.044 153.674C145.924 151.917 149.785 150.138 153.575 148.19C155.211 147.349 157.454 146.636 158.821 145.374C159.796 144.473 159.758 143.791 161.025 143.254C162.102 142.8 162.156 143.229 162.649 142.406C162.945 141.913 163.28 140.104 163.107 139.569C162.635 138.109 161.936 139.293 160.956 138.286C160.251 137.561 160.422 135.498 160.614 134.643C160.864 135.05 161.008 135.492 161.046 135.968C162.11 135.444 161.681 133.643 162.844 133.348C164.07 133.038 163.943 133.993 164.263 134.969C165.189 133.609 164.447 132.449 163.945 131.121C166.494 130.643 169.232 130.181 171.758 131.029C173.585 131.642 175.148 133.148 177.077 133.439C178.966 133.724 179.329 132.828 180.721 131.92C181.852 131.182 182.822 132.051 183.404 131.494C183.045 133.375 179.962 133.117 180.341 135.468C180.512 136.526 181.809 137.476 182.399 138.299C183.14 139.333 183.73 140.475 184.235 141.639C186.198 146.168 187.037 151.423 187.861 156.267C189.893 168.221 190.15 180.411 192.062 192.404C192.973 198.116 193.886 203.832 194.359 209.6C194.478 211.042 195.358 214.314 194.638 215.701C194.029 216.872 192.673 216.876 191.483 217.159C189.154 217.713 186.968 218.464 184.734 219.298C182.732 220.044 182.15 220.502 180.864 218.618C179.621 216.795 179.006 214.622 178.117 212.624C176.984 210.078 175.615 207.621 174.301 205.164C176.882 205.164 178.368 203.771 178.299 201.148C178.225 198.242 175.835 197.553 174.85 195.165C173.892 196.409 173.812 196.445 173.129 195.263C172.348 193.912 171.821 191.441 171.343 189.909C171.685 190.273 172.027 190.638 172.368 191.002C173.23 189.816 171.88 187.947 171.429 186.831C170.732 185.107 170.61 183.243 169.949 181.523C169.588 180.585 168.754 179.846 168.549 178.867C168.413 178.212 168.96 177.588 168.83 176.923C168.604 175.765 167.294 174.522 166.886 173.344C166.26 171.532 165.579 169.937 164.801 168.172C163.749 165.782 163.994 163.275 163.801 160.732C163.601 158.095 162.757 155.572 162.458 152.947C162.252 151.133 162.898 148.85 161.526 147.397C161.365 149.812 162.057 149.774 159.788 150.209C157.205 150.703 155.332 152.627 152.89 153.201C152.386 153.32 152.019 151.121 152.216 154.121C151.044 153.256 148.544 154.33 149.477 154.843C148.77 155.599 147.378 155.076 147.145 156.209C144.743 153.873 140.89 161.824 138.029 157.677C137.557 160.487 135.521 162.149 132.789 162.521C131.415 162.707 130.569 163.165 129.35 163.577C129.102 163.66 129.011 164.016 128.718 164.112C128.271 164.257 127.614 163.817 127.291 163.903C126.635 164.077 125.905 164.941 124.989 165.112C123.938 165.309 122.792 165.219 121.74 165.097C120.425 164.945 119.846 164.789 118.558 165.222C117.4 165.612 116.16 166.704 115.085 165.515C113.396 168.436 109.37 167.722 107.382 165.551ZM185.446 130.297C184.168 130.144 185.055 129.045 185.647 128.715C187.255 127.819 186.826 130.463 185.446 130.297ZM114.689 140.78C122.189 129.96 135.018 122.526 146.305 116.271C152.471 112.854 158.764 109.542 165.237 106.746C168.456 105.356 171.712 104.02 174.999 102.799C176.753 102.147 178.53 101.554 180.307 100.964C180.799 100.801 181.693 100.301 182.207 100.35C182.118 100.341 183.485 100.713 183.217 100.83C184.097 100.447 184.516 99.4469 185.552 99.0471C186.715 98.5974 188.198 98.4115 189.444 98.3709C190.547 98.3347 191.502 98.7904 192.553 98.8261C193.243 98.8491 193.83 98.5212 194.506 98.4729C194.852 98.4488 194.822 98.9665 195.03 98.9966C195.12 99.0098 196.042 98.6638 196.051 98.6698C196.386 98.8853 196.683 99.7266 196.987 100.055C197.856 100.997 199.133 101.654 200.293 102.149C201.705 102.753 205.148 103.359 203.552 105.591C204.686 105.428 205.213 106.453 203.794 106.712C203.025 106.853 202.697 106.149 202.126 105.669C200.807 104.561 197.605 102.984 195.706 103.055C194.637 103.095 193.811 103.906 192.825 104.201C191.855 104.49 191.375 104.041 190.524 104.112C189.529 104.195 188.888 105.037 187.94 105.187C187.052 105.327 186.557 104.722 185.764 104.764C184.821 104.814 183.907 105.633 183.007 105.908C181.574 106.346 180.522 106.644 179.124 107.37C176.413 108.777 173.387 109.311 170.594 110.522C168.361 111.49 165.829 111.999 163.762 113.07C161.464 114.259 159.156 115.444 156.906 116.737C155.28 117.671 151.976 117.992 150.183 117.755C150.158 121.055 148.533 118.741 146.896 120.187C147.283 120.529 147.723 120.78 148.214 120.94C146.44 121.649 144.8 122.531 143.081 123.345C141.305 124.188 139.41 124.373 138.243 125.966C137.168 127.434 137.532 126.677 135.928 127.255C135.192 127.52 134.552 128.33 134.022 128.873C133.11 129.808 132.908 131.223 132.388 129.302C132.236 129.536 131.638 131.027 131.522 131.065C130.87 130.373 130.776 131.194 130.411 131.487C130.603 132.125 130.329 132.543 129.589 132.741C129.214 133.019 128.835 133.292 128.451 133.559C127.061 134.524 125.29 135.352 124.311 136.789C123.588 136.363 123.321 135.627 123.761 134.877C122.38 136.149 120.733 137.456 120.36 139.414C120.188 139.249 119.988 139.129 119.761 139.056C119.201 139.434 119.931 140.562 120.286 140.815C121.836 140.213 119.899 140.432 120.94 140.529C121.237 140.556 121.542 140.778 121.869 140.782C122.829 140.795 123.732 140.749 124.684 140.602C126.783 140.279 128.846 139.676 130.879 139.072C133.092 138.413 135.306 137.756 137.471 136.949C139.253 136.284 141.006 135.544 142.758 134.805C143.458 134.51 144.157 134.211 144.858 133.919C146.189 133.363 146.891 132.449 146.705 134.014C147.765 133.838 148.683 132.34 149.497 131.728C150.642 130.869 151.93 130.228 153.287 129.789C153.836 129.611 154.24 129.385 154.808 129.384C155.087 129.383 155.253 130.169 155.429 130.126C156.646 129.831 156.091 129.156 156.639 128.184C157.836 126.06 161.061 124.886 163.041 123.679C164.298 122.913 165.19 121.883 166.351 121.034C166.894 120.638 167.288 120.462 167.857 120.294C168.292 120.165 168.826 121.166 169.109 120.161C168.096 119.746 167.26 119.236 166.286 118.934C165.597 118.719 166.424 117.986 165.331 118.423C164.892 118.598 164.742 119.447 164.58 119.802C163.36 118.713 159.929 119.842 158.481 120.298C158.382 120.329 157.935 120.094 157.724 120.108C156.888 120.164 156.306 121.289 155.756 121.773C154.294 123.062 152.707 123.6 150.906 124.336C151.385 121.717 154.908 120.644 156.964 119.641C159.969 118.175 162.767 116.303 166.058 115.514C168.249 114.988 171.153 114.566 172.1 117.114C172.666 118.641 172.737 122.435 170.821 123.14C170.618 122.427 171.267 121.818 171.462 121.199C169.554 121.928 169.24 124.219 167.791 125.415C166.976 126.087 166.685 126.303 166.291 126.952C165.9 127.597 165.713 128.199 164.796 128.885C163.299 125.703 163.552 130.061 162.792 130.608C163.098 130.388 161.555 131.03 161.739 130.962C161.668 130.988 160.995 129.899 160.559 129.922C159.766 129.964 159.918 130.838 159.536 131.277C158.24 132.766 156.566 133.742 154.48 133.508C154.431 134.567 154.758 135.832 153.312 135.929L153.122 133.581C152.335 134.377 151.299 135.133 150.659 136.055C149.93 137.104 150.008 137.75 148.799 138.45C147.535 139.181 144.847 140.621 143.343 140.745C143.715 140.218 143.649 139.741 143.147 139.317C142.39 140.097 141.274 140.173 140.469 140.877C143.263 142.045 138.322 141.985 137.695 142.117C137.275 142.206 136.909 142.588 136.484 142.674C135.92 142.789 135.847 142.195 135.361 142.383C134.65 142.659 134.938 143.436 134.195 143.826C133.661 144.107 132.755 144.103 132.152 144.37C130.716 145.006 127.656 146.415 126.685 144.706C126.193 147.638 121.169 145.853 119.31 145.656C116.763 145.385 112.327 144.19 114.689 140.78ZM125.387 110.783C125.747 110.476 126.108 110.498 126.469 110.851C125.966 108.198 129.852 106.91 131.547 105.782C133.796 104.286 136.442 101.383 139.384 101.613C138.883 101.984 138.382 102.356 137.881 102.728C138.596 102.821 139.312 102.913 140.026 103.006C139.623 103.598 139.219 104.19 138.815 104.782C138.155 101.143 134.71 105.737 133.713 106.407C132.709 107.081 131.707 107.583 130.815 108.405C129.931 109.22 129.133 110.686 127.671 109.953C127.538 112.032 125.867 111.468 124.712 112.619C124.663 111.897 125.077 111.386 125.387 110.783ZM140.651 100.408C144.208 99.0756 147.304 96.6127 150.656 94.8534C153.857 93.1725 157.122 91.6632 160.377 90.0953C162.027 89.2996 165.051 87.2419 166.939 88.2905C169.485 89.7065 165.979 90.1633 165.069 90.6536C164.732 88.4731 163.553 90.4485 164.257 91.6616C162.314 90.8225 158.077 94.1053 156.223 95.0108C155.803 95.2159 155.992 95.3343 155.514 95.5756C155.397 95.6349 154.181 95.9118 153.832 96.0286C152.087 96.6127 150.937 96.1487 150.186 98.2552C150.028 97.7594 149.871 97.2631 149.713 96.7668C148.621 99.2199 145.3 100.294 143.177 101.744C142.629 102.118 141.066 103.569 140.372 103.269C139.406 102.851 139.794 100.729 140.651 100.408ZM204.809 107.804C206.31 107.903 204.863 108.603 205.275 109.066C205.228 109.014 206.179 109.825 206.055 109.602C206.223 109.902 206.626 109.891 206.832 110.5C207.542 112.593 204.441 114.756 203.395 115.944C201.361 118.254 200.186 121.18 198.067 123.416C197.11 124.427 196.158 125.124 194.831 125.501C193.903 125.765 192.921 125.482 192.067 126.375C191.38 127.094 191.536 127.503 190.776 127.885C189.438 128.559 188.849 127.968 187.547 129.424C186.426 126.378 189.646 126.383 191.325 124.681C193.644 122.331 196.185 119.96 198.359 117.446C200.291 115.213 201.065 113.254 201.982 110.541C202.271 109.685 202.585 107.851 203.382 107.314C204.623 106.478 203.879 107.742 204.809 107.804ZM212.193 186.929C216.131 182.524 221.016 178.569 226.312 175.916C228.204 174.967 230.898 173.722 232.86 175.182C234.784 176.614 234.37 179.469 233.595 181.412C232.851 181.12 233.553 178.39 233.167 177.716C232.326 176.244 230.511 177.025 229.276 177.519C227.829 178.097 226.538 178.735 225.392 179.784C224.927 180.209 224.037 180.59 223.739 180.883C223.292 180.697 223.028 180.832 222.949 181.289C223.041 181.568 223.03 181.844 222.916 182.114C222.851 182.201 222.269 181.847 222.186 181.918C221.809 182.241 221.455 182.621 221.084 182.921C220.339 183.524 219.705 183.809 219.019 184.649C217.694 186.273 215.941 187.225 214.61 188.772C214.309 189.122 213.949 190.018 213.882 190.097C213.209 190.882 212.211 191.503 211.452 192.335C210.14 193.771 208.739 194.735 207.225 195.967C206.572 196.497 205.812 197.068 205.378 197.805C205.181 198.141 205.069 199.983 205.062 199.991C203.577 201.619 203.866 198.347 203.978 197.937C205.184 193.523 209.261 190.208 212.193 186.929ZM204.086 216.778C204.271 217.471 204.423 218.044 204.611 218.747C203.433 217.782 203.433 217.782 204.086 216.778ZM202.815 219.048C202.382 219.484 201.947 219.917 201.509 220.348C200.545 219.329 202.991 218.874 202.815 219.048ZM202.203 201.52C201.743 203.383 200.056 205.642 198.897 207.113C199.025 206.951 197.907 207.277 197.78 207.351C197.367 207.59 198.356 209.14 196.925 208.447C196.417 208.734 197.417 209.905 196.727 210.429C194.733 205.885 200.178 201.948 202.286 198.576C203.317 199.522 202.462 200.475 202.203 201.52ZM189.251 226.085C190.705 226.459 191.461 226.224 192.443 224.796C193.033 223.938 193.249 222.419 194.598 223.702L194.836 222.052C196.763 222.842 196.601 225.699 197.443 227.281C197.853 225.491 198.823 220.489 201.794 221.291C205.128 222.192 199.578 227.927 199.062 229.332C197.929 227.573 198.375 229.21 197.51 229.457C196.768 229.671 195.609 229.125 194.707 229.174C191.964 229.323 189.554 230.557 187.048 231.602C186.414 229.891 185.78 228.181 185.145 226.47C186.621 226.584 189.671 222.657 190.104 225.511C189.01 225.321 188.702 225.369 188.169 226.365C188.509 226.192 188.87 226.099 189.251 226.085ZM195.409 248.412C195.405 248.398 198.246 248.574 198.5 248.481C200.444 247.771 199.725 245.565 200.123 244.006C200.925 244.743 200.5 246.088 200.747 247.042C201.037 248.163 201.877 249.118 201.955 250.317C202.132 253.026 199.91 252.425 198.225 253.301C196.785 254.05 196.626 254.992 195.41 252.973C195.081 252.427 194.374 251.004 194.446 250.305C194.517 249.613 195.613 249.038 195.409 248.412ZM197.699 260.132L196.913 259.252C199.255 259.969 197.874 258.891 198.413 257.418C200.21 258.614 201.676 259.845 203.098 257.449L205.555 267.358C203.904 267.747 201.775 265.197 200.644 264.321C199.99 263.815 196.362 261.865 198.54 261.297C198.26 260.909 197.979 260.521 197.699 260.132ZM213.737 229.014C212.373 230.311 210.999 231.037 209.514 232.057C208.212 232.952 208.66 233.979 207.531 234.977C206.781 235.641 205.024 236.316 204.097 236.823C202.447 237.724 200.969 237.896 199.272 236.887C199.734 240.606 197.187 240.897 194.016 241.633C192.505 241.985 191.609 242.522 190.52 241.137C189.773 240.189 189.481 238.473 190.41 237.606C191.884 236.229 195.813 236.704 197.705 235.838C199.141 235.181 200.604 231.478 202.375 232.826C201.461 231.37 202.525 230.978 203.32 229.939C204.19 228.802 204.725 227.471 205.625 226.342C207.336 224.197 209.963 222.039 212.393 220.745C214.532 219.607 215.654 220.413 215.974 222.803C216.136 224.005 216.13 225.795 215.457 226.861C215.242 227.201 214.534 227.205 214.32 227.524C213.946 228.081 214.289 228.489 213.737 229.014ZM238.829 200.172C240.535 201.492 240.369 204.267 240.637 206.157C241.016 208.821 240.741 211.398 240.701 214.111C240.658 216.954 239.263 218.805 238.607 221.469C237.878 224.433 236.936 226.002 235.3 228.489C237.074 228.769 234.433 234.069 233.998 234.755C233.525 235.499 229.713 238.931 231.347 238.931C230.445 240.12 229.464 241.34 228.566 242.497C228.212 242.952 227.592 243.131 227.313 243.452C226.745 244.105 226.711 244.687 226.304 245.45C225.687 246.606 225.485 246.298 224.673 247.137C224.114 247.716 223.746 248.481 223.196 249.037C221.424 250.826 221.198 249.361 220.207 247.982C220.055 248.351 219.785 248.583 219.397 248.677C219.087 247.117 221.223 245.541 222.122 244.594C223.593 243.041 224.938 241.33 226.239 239.631C229.025 235.992 231.528 232.125 233.503 227.984C235.605 223.576 237.284 218.806 238.156 213.998C238.82 210.333 239.452 204.046 234.555 203.113C230.993 202.435 227.066 204.599 224.13 206.352C222.34 207.419 220.541 208.48 218.837 209.681C216.986 210.982 215.387 212.825 213.379 213.87C214.477 213.298 210.853 215.018 211.408 214.535C211.148 214.76 211.372 215.451 211.201 215.762C210.977 216.168 210.199 216.568 209.85 216.83C208.929 217.522 207.457 218.23 207.038 219.373C201.194 215.204 212.816 207.803 215.795 205.918C221.704 202.179 231.986 194.874 238.829 200.172ZM254.592 159.626C254.536 156.624 256.981 152.525 258.632 150.077C259.44 148.879 260.731 148.927 261.204 147.513C261.477 146.699 261.119 145.846 261.2 145.029C261.31 143.924 261.789 143.038 262.342 142.088C267.34 133.501 273.412 125.901 279.879 118.41C283.068 114.717 286.092 110.882 289.531 107.413C290.967 105.964 294.829 100.755 297.038 101.276C298.208 101.552 298.888 103.337 299.416 104.248C300.289 105.754 301.25 107.165 302.311 108.551C305.112 112.208 308.342 115.418 312.158 118.011C314.54 119.631 316.947 121.205 319.277 122.903C321.194 124.299 324.094 125.896 325.463 127.858C326.833 129.819 324.822 131.48 323.722 133.109C322.013 135.642 320.441 138.267 318.726 140.797C318.044 140.307 318.22 139.311 317.753 138.683C317.338 138.127 316.752 137.9 316.179 137.556C315.082 136.899 314.005 136.095 313.014 137.196C311.279 139.125 313.664 143.683 316.235 143.182C316.538 145.085 311.404 148.22 310.118 149.267C306.169 152.48 302.096 155.273 296.88 155.563C294.769 155.681 292.573 155.521 290.567 154.814C289.606 154.476 288.544 154.011 287.808 153.274C286.926 152.391 286.701 151.077 285.845 150.203C285.103 149.444 284.084 149.327 283.343 148.566C282.6 147.804 282.233 146.601 281.932 145.615C281.343 143.687 281.232 141.654 280.666 139.722C280.326 138.56 280.046 137.006 278.935 138.123C277.322 139.745 278.132 144.846 278.545 146.789C279.136 149.562 280.521 151.798 281.971 154.183C283.544 156.771 284.125 159.171 284.407 162.166C284.934 167.771 286.543 173.15 289.046 178.193C290.099 180.317 291.361 182.313 292.499 184.388C293.03 185.356 294.221 188.659 295.666 188.641C297.975 188.613 294.686 181.88 294.229 180.749C291.7 174.489 289.284 167.909 288.743 161.131C292.368 162.065 296.32 162.951 300.074 162.359C297.651 167.779 300.183 173.175 299.873 178.753C299.718 181.551 299.606 184.131 299.664 186.921C299.715 189.367 298.61 191.812 297.655 194.023C295.759 198.416 293.372 203.834 289.85 207.198C286.905 210.011 282.967 210.231 279.12 209.583C270.368 208.109 264.618 201.382 260.945 193.741C258.585 188.833 256.781 183.593 255.662 178.263C254.365 172.094 254.707 165.883 254.592 159.626ZM265.958 118.05C257.791 112.141 269.658 105.43 275.699 106.344C277.116 106.558 279.723 107.143 279.591 108.993C279.482 110.504 276.961 112.189 275.993 113.122C273.233 115.784 270.424 121.28 265.958 118.05ZM325.37 249.35C325.089 249.098 322.804 249.715 323.709 248.362C324.461 247.239 326.548 248.647 327.305 248.936C326.681 249.368 326.137 250.036 325.37 249.35ZM291.363 320.818C290.661 320.905 289.927 319.012 292.458 320.426C292.093 320.557 291.728 320.688 291.363 320.818ZM291.29 351.673C291.378 352.521 291.637 353.081 291.034 353.698C290.525 353.07 290.459 352.184 291.29 351.673ZM292.318 364.421C292.243 364.883 292.169 365.345 292.095 365.806C291.51 365.51 290.927 365.215 290.342 364.919C291 364.753 291.66 364.587 292.318 364.421ZM293.033 353.671C293.904 353.997 293.498 352.956 294.131 352.809C294.357 353.893 294.078 354.822 293.456 355.716C293.396 355.505 293.077 353.687 293.033 353.671ZM315.29 276.742C314.068 276.587 313.883 277.878 312.972 278.378C312.384 278.702 310.594 278.459 310.26 279.078C310.701 279.205 311.143 279.333 311.583 279.46C310.574 280.004 309.564 280.549 308.555 281.093C310.983 281.093 313.513 279.933 315.925 280.274C316.945 280.418 317.692 280.762 318.332 281.591C318.72 282.095 319.061 282.905 319.124 283.521C319.191 284.188 318.671 284.649 318.763 284.967C319.85 284.997 319.722 286.779 319.478 287.506C318.949 289.082 316.847 291.549 314.963 290.55C315.751 291.668 315.55 292.306 314.385 292.955C314.491 292.585 314.569 291.939 313.973 292.003C313.82 292.623 313.879 293.606 313.372 294.073C312.806 294.595 312.3 293.984 311.758 294.325C311.116 294.728 311.309 295.362 310.804 295.799C310.136 296.377 310.041 295.966 309.242 296.079C308.033 296.25 308.805 295.499 307.836 296.478C307.501 296.816 307.558 297.695 307.015 298.19C305.972 299.139 303.188 300.128 302.189 298.911C299.787 302.719 292.585 303.632 289.233 300.626C283.887 295.833 293.855 286.083 297.146 282.994C300.45 279.893 304.118 277.215 307.831 274.629C309.94 273.161 312.105 271.827 314.315 270.519C315.678 269.711 317.39 268.236 319.066 268.378C320.568 268.505 321.852 269.671 323.434 269.902C324.578 270.069 326.801 270.344 325.358 271.896C324.682 272.621 322.031 273.794 321.129 273.97C320.598 274.074 320.04 273.875 319.514 273.983C318.625 274.165 318.014 274.916 317.046 274.821C317.352 276.257 316.793 276.933 315.29 276.742ZM331.111 223.42C331.111 224.544 329.06 224.263 328.632 223.882C327.927 223.254 327.902 221.376 327.641 220.522C328.833 220.822 331.11 221.92 331.111 223.42ZM314.588 186.348C318.897 182.807 323.427 179.56 328.215 176.701C329.93 175.677 332.351 173.612 334.481 173.87C335.375 173.978 337.222 175.004 336.549 176.136C336.423 176.347 335.429 176.432 335.122 176.586C334.774 176.76 334.501 177.239 334.178 177.476C331.94 179.117 329.252 180.126 327.007 181.807C325.162 183.187 323.442 184.731 321.456 185.916C319.551 187.052 317.56 187.771 315.751 189.029C315.787 189.004 313.399 189.862 313.867 190.019C311.771 189.317 313.985 186.845 314.588 186.348ZM343.313 185.029C345.873 184.009 348.377 182.771 351.056 182.086C352.393 181.744 353.766 181.486 355.15 181.641C355.385 181.229 355.699 181.138 356.09 181.367C356.396 181.837 356.798 182.197 357.298 182.449C358.062 183.036 360.872 183.803 360.311 185.099C359.939 185.956 357.121 186.027 356.348 186.22C354.017 186.801 351.843 188.107 349.441 188.428C349.216 188.458 348.48 188.185 348.472 188.186C347.534 188.391 346.754 189.363 345.949 189.83C344.216 190.833 341.727 191.001 340.482 192.732C344.512 195.464 348.008 192.755 351.551 190.692C353.673 189.457 355.951 188.566 358.271 187.774C359.483 187.361 360.706 186.931 361.934 186.568C362.442 186.382 362.965 186.249 363.501 186.167C364 186.068 364.357 186.249 364.573 186.712C366.058 186.663 366.185 185.731 367.079 187.469C368.34 189.919 366.411 189.795 364.599 190.096C362.086 190.513 359.531 191.452 357.055 192.074C356.484 192.218 351.476 193.379 351.47 193.42C351.243 195.001 365.615 193.537 366.849 193.3C369.026 192.881 371.361 191.691 373.615 191.978C375.346 192.198 379.289 194.737 376.528 196.424C375.984 193.823 374.119 195.971 373.145 196.849C371.847 198.018 369.988 197.905 368.208 198.363C365.775 198.989 359.544 201.335 357.815 198.344C358.362 200.965 348.43 199.633 347.065 199.546C345.734 199.461 344.016 199.744 342.729 199.365C341.89 199.117 341.423 198.572 340.634 198.449C340.44 198.657 340.208 198.799 339.938 198.875C339.538 198.672 339.176 198.414 338.854 198.102C336.194 196.88 332.079 196.204 333.557 192.31C334.951 188.637 339.932 186.377 343.313 185.029ZM368.244 187.299C368.31 187.07 368.376 186.842 368.442 186.613C368.45 187.314 370.123 187.613 369.93 188.522C369.502 190.534 367.571 187.511 367.406 187.181C367.685 187.221 367.964 187.26 368.244 187.299ZM378.456 190.642C378.65 191.467 380.874 193.221 380.323 193.626C379.446 192.434 377.022 192.975 378.456 190.642ZM340.935 265.852C341.75 264.237 344.211 266.987 343.952 264.23C345.29 264.351 344.454 265.369 346.059 264.922C346.66 264.754 347.066 264.088 347.799 263.934C347.994 263.893 348.838 263.96 349.129 263.951C350.094 263.921 353.875 263.814 351.272 262.549C352.729 261.586 352.908 262.074 354.223 262.957C353.885 261.133 355.82 262.168 356.72 262.396C356.078 261.355 357.672 260.249 358.189 259.546C358.004 260.629 358.101 261.841 359.669 261.149C360.059 260.977 359.971 260.211 360.281 260.086C360.848 259.857 361.165 260.273 361.369 260.25C361.569 260.227 361.991 260.34 362.411 260.181C362.958 259.976 362.694 259.242 363.387 259.133C363.839 259.062 364.168 259.726 364.719 259.731C365.002 259.734 365.475 259.446 365.69 259.462C365.727 259.465 365.997 258.815 366.327 258.799C366.811 258.776 367.008 260.072 367.185 260.323C368.031 261.524 369.157 262.308 370.456 262.948C368.106 265.102 363.367 264.874 360.413 265.6C358.812 265.994 357.447 266.562 355.983 267.293C355.63 267.523 355.326 267.805 355.071 268.139C354.864 268.001 354.656 267.863 354.449 267.726C353.646 267.775 352.887 267.378 351.984 267.531C349.194 268.001 347.01 270.091 344.175 270.557C342.901 270.766 341.854 271.059 341.024 269.954C340.296 268.986 340.416 266.882 340.935 265.852ZM337.11 252.979C337.742 253.514 336.982 255.254 338.206 255.065C339.074 254.931 338.901 253.583 339.583 253.298C340.479 252.923 341.02 253.812 341.863 253.73C343.433 253.575 343.343 252.204 342.016 251.602C343.395 251.238 343.837 252.869 345.059 252.854C346.663 252.835 346.28 250.942 347.645 250.628C348.236 250.492 348.039 251.361 348.422 251.469C349.19 251.684 349.725 251.314 350.404 250.988C351.011 250.697 351.444 250.134 352.108 249.943C352.41 249.856 353.178 250.016 353.4 249.854C353.847 249.528 354.247 248.259 354.687 248.091C354.597 248.125 356.039 248.848 356.246 248.916C356.119 249.452 355.826 249.516 355.365 249.108C355.365 250.317 358.726 250.694 358.036 249.199C359.854 249.952 358.5 250.339 358.319 251.389C358.246 251.811 358.001 251.8 358.074 252.246C358.107 252.452 359.06 252.275 359.048 252.555C358.968 254.36 353.215 254.915 352.126 255.074C349.869 255.404 347.734 255.958 345.559 256.641C343.94 257.149 341.149 258.605 339.425 258.515C336.947 258.385 336.624 255.151 337.11 252.979ZM331.573 234.562C330.968 232.554 332.907 228.407 335.432 228.925C336.053 229.053 336.206 229.567 336.687 229.795C337.36 230.114 338.453 229.947 339.036 230.276C340.343 231.016 339.684 232.901 340.994 233.582C338.926 234.083 332.533 237.753 331.573 234.562ZM333.965 242.363C334.856 241.884 336.3 241.823 336.907 240.902C337.21 241.111 337.782 242.383 338.324 242.188C338.578 242.098 338.839 241.408 338.821 241.409C339.304 241.395 339.4 240.741 340.139 240.815C340.817 240.883 341.576 241.698 342.18 242.001C342.076 239.981 342.594 239.788 344.232 238.706C344.591 238.47 344.891 237.58 345.222 237.22C344.905 239.34 345.704 239.352 347.397 239.671C349.52 240.07 350.842 241.209 351.692 243.26C349.884 242.907 347.551 243.332 346.838 245.276C345.394 242.639 340.148 246.278 338.451 247.023C337.191 247.577 335.726 248.32 334.67 247.031C333.926 246.123 334.352 245.03 334.368 244.224C334.372 243.97 334.634 243.955 334.61 243.578C334.579 243.097 333.952 242.904 333.965 242.363ZM353.275 283.834C352.797 284.015 350.339 284.117 350.323 283.302C350.31 282.583 354.662 283.308 353.275 283.834ZM349.282 281.2C347.421 282.347 345.34 278.306 344.656 277.142C346.607 277.392 347.56 275.76 348.71 274.519C349.803 276.915 351.464 275.649 353.21 274.849C355.27 273.905 357.528 273.898 359.638 273.14C360.296 272.904 360.904 272.552 361.546 272.282C362.064 272.088 362.58 271.89 363.094 271.686C363.459 271.357 363.589 270.952 363.482 270.472C363.309 270.068 363.427 269.813 363.836 269.708C364.322 269.853 364.818 269.937 365.324 269.96C366.138 269.798 367.306 269.031 366.325 268.204C367.376 267.249 368.43 268.199 369.443 268.617C369.202 267.931 368.963 267.245 368.722 266.559C369.224 266.772 370.716 268.856 370.868 268.845C371.832 268.772 371.731 267.479 372.285 266.956C372.605 267.351 372.697 270.291 373.954 269.3C374.491 268.877 373.334 267.435 373.049 267.106C374.487 267.431 375.742 269.147 376.131 270.48C375.448 270.579 374.817 270.442 374.237 270.068C373.866 271.923 377.302 271.172 377.858 272.141C378.947 274.039 371.863 275.358 370.94 275.534C369.092 275.886 366.913 276.017 365.22 276.836C363.597 277.619 363.213 277.844 361.318 277.991C359.155 278.158 357.044 278.871 354.951 279.426C353.134 279.908 350.892 280.207 349.282 281.2ZM388.822 213.256C390.531 212.641 396.285 209.451 397.749 210.87C397.595 210.72 398.806 213.222 398.793 213.064C398.897 214.366 398.865 214.889 397.263 215.513C396.116 215.959 395.117 215.011 394.085 215.387C392.951 215.801 393.744 216.534 393.161 217.046C392.521 217.607 391.288 217.849 390.493 218.095C388.545 218.696 386.581 219.199 384.643 219.848C380.698 221.167 376.521 222.394 372.467 223.327C369.437 224.024 364.296 225.756 361.504 223.71C361.232 224.873 360.566 224.714 359.641 224.884C358.916 225.016 357.604 225.376 356.959 225.394C355.886 225.425 352.902 225.144 353.312 223.639C353.199 224.053 355.633 222.634 355.212 222.546C356.246 222.763 355.911 222.243 356.758 221.953C357.864 221.576 359.02 221.596 360.149 221.196C362.996 220.186 365.384 218.877 368.388 218.245C375.252 216.801 382.201 215.639 388.822 213.256ZM113.684 368.782C113.128 368.797 112.695 367.217 114.387 368.345C114.153 368.491 113.919 368.636 113.684 368.782ZM100.319 366.738C99.563 366.931 99.2613 366.509 99.4155 365.472C100.47 365.055 100.771 365.477 100.319 366.738ZM90.0014 364.621C89.8078 363.697 90.4933 363.488 91.1146 363.073C91.0521 364.298 91.0521 364.298 90.0014 364.621ZM64.0405 357.013C62.9947 356.783 61.6011 355.76 61.3615 357.477C61.1865 357.08 60.2937 355.21 60.6771 354.777C60.8772 354.55 61.6351 355.598 61.5545 355.494C62.4698 353.643 64.0476 355.877 64.9295 356.538C64.6333 356.696 64.3366 356.855 64.0405 357.013ZM335.953 152.401C336.314 151.638 336.74 151.396 337.23 151.675C336.461 153.46 333.857 154.428 335.953 152.401ZM354.046 135.64C354.691 136.849 353.72 137.36 353.028 138.365C353.433 137.281 353.714 136.53 354.046 135.64ZM432.677 253.683C435.003 253.682 439.959 252.454 441.362 255.113C442.29 253.306 443.345 256.695 444.151 257.238C444.241 257.3 444.821 256.856 445.091 257.02C445.498 257.266 445.849 257.937 446.082 258.335C446.785 259.537 447.087 260.967 447.476 262.289C443.413 262.289 439.247 261.343 435.187 261C432.522 260.774 429.91 260.767 427.241 260.911C426.711 260.939 425.658 260.764 425.204 260.864C424.743 260.966 423.908 261.904 423.4 261.753C424.19 263.234 434.296 266.82 435.067 265.18C434.154 264.627 432.125 264.203 432.126 262.867C432.128 261.37 434.03 261.373 435.038 261.417C437.242 261.513 440.934 262.247 441.838 264.54C442.225 265.522 442.344 267.997 441.919 268.946C441.644 269.558 441.179 270.295 440.442 270.419C440.14 270.47 439.704 270.068 439.658 270.078C438.146 270.399 435.346 271.614 433.696 269.901C432.507 271.44 426.777 269.759 425.023 269.178C421.955 268.162 417.73 266.768 415.867 263.905C413.595 260.416 418.213 257.467 420.865 256.049C424.49 254.111 428.631 253.684 432.677 253.683ZM448.159 261.75C448.873 261.951 449.586 262.153 450.298 262.354C450.108 263.605 447.294 262.615 448.159 261.75ZM469.717 307.201C469.936 302.191 468.488 297.779 467.651 292.934C467.444 291.733 467.656 289.633 466.743 288.645C465.872 287.701 463.927 288.469 463.849 286.799C462.991 287.804 463.078 288.014 462.02 286.858C462.213 287.354 462.241 287.858 462.104 288.371C461.447 287.995 459.068 286.746 459.268 288.454C457.312 288.022 457.879 286.798 456.763 285.864C456.604 285.731 455.967 286.202 455.719 286.002C455.27 285.638 455.048 285.308 454.67 284.84C454.189 285.421 453.534 285.841 452.946 286.301C452.605 285.556 451.939 285.01 451.14 284.829C451.887 286.393 453.735 288.419 451.201 289.309C449.688 289.84 447.209 289.189 445.607 289.313C439.667 289.774 433.162 288.479 427.42 287.064C421.52 285.611 415.555 283.559 410.249 280.56C409.119 279.921 408.406 279.164 407.432 278.371C406.486 277.6 405.797 277.478 404.659 276.985C402.611 276.098 400.738 274.675 399.18 273.089C395.829 269.678 392.717 265.218 393.649 260.225C394.58 255.248 398.001 251.358 401.661 248.081C405.984 244.21 410.866 240.979 416.046 238.373C418.363 237.209 424.288 232.833 426.576 235.393C428.039 237.029 427.216 239.116 425.218 239.479C424.725 239.569 424.21 239.238 423.711 239.465C422.993 239.792 423.246 240.178 422.949 240.45C422.434 240.924 421.887 241.662 421.117 242.072C418.432 243.504 415.836 244.639 413.268 246.383C412.085 247.186 410.946 247.532 409.903 248.233C408.865 248.93 408.629 250.084 407.234 249.372C407.731 251.401 404.748 253.574 403.578 254.817C401.767 256.742 399.595 259.199 400.44 262.047C402.095 267.622 409.57 271.856 414.354 274.307C420.324 277.365 426.908 279.8 433.555 280.807C436.86 281.308 440.276 281.617 443.605 281.935C446.197 282.182 450.176 281.277 452.041 283.611C452.098 280.889 460.601 281.129 462.411 280.781C458.782 268.378 451.658 257.351 444.042 247.049C440.304 241.991 436.633 236.79 432.372 232.154C427.707 227.078 422.378 222.542 417.314 217.872C407.382 208.712 396.15 200.537 384.72 193.335C373.316 186.15 361.506 179.079 349.012 173.956C334.743 168.106 319.72 164.257 304.681 160.98C306.721 158.381 310.04 157.113 312.652 155.211C313.567 154.545 314.803 152.947 315.991 152.729C317.277 152.492 318.29 153.876 319.206 154.571C321.834 156.565 323.652 155.718 326.663 155.598C328.465 155.526 332.731 156.529 333.49 154.093C334.501 155.437 333.036 156.516 332.286 157.502C332.832 158.263 333.272 157.473 333.811 157.354C333.977 157.216 334.143 157.078 334.309 156.941C334.576 156.553 334.818 156.551 335.032 156.933C335.353 157.417 335.677 157.31 336.003 156.611C336.092 156.556 336.181 156.499 336.27 156.443C336.66 156.236 337.035 155.908 337.397 155.65C340.133 153.694 342.572 152.029 345.592 150.589C348.128 149.38 346.764 147.067 348.436 145.434C348.815 145.065 349.452 145.25 349.856 144.937C350.252 144.629 350.312 144.28 350.601 143.951C351.296 143.158 350.469 142.239 352.241 143.209L351.602 139.611C355.077 142.982 355.063 133.28 355.538 131.844C355.476 132.034 355.85 130.565 355.85 130.577C355.952 127.666 356.35 125.555 352.939 125.386C354.23 124.574 354.625 126.16 355.221 124.518C355.52 123.696 354.588 122.282 356.073 122.812C356.386 121.064 356.077 119.649 355.688 117.95C355.288 116.211 355.523 115.05 355.541 113.311C355.561 111.339 354.638 109.356 354.342 107.414C354.111 105.892 354.349 103.493 352.383 104.052C352.106 103.619 353.078 102.288 353.038 101.63C352.977 100.608 351.867 99.5692 351.553 98.5875C351.091 99.0646 350.439 99.2237 349.81 99.0082C350.401 97.6744 349.846 97.2264 349.281 96.0763C348.957 95.4177 349.153 94.6905 348.459 94.2183C348.061 93.9474 347.383 94.4037 347.072 94.0861C346.404 93.4061 346.651 92.504 346.191 91.6079C345.615 90.4841 344.298 89.6259 343.391 88.7824C338.29 84.0414 332.75 80.418 325.965 78.5654C319.12 76.6964 311.14 76.0268 304.319 78.1827C301.592 79.0442 299.171 78.9559 296.717 80.565C295.921 81.0871 295.836 80.9472 295.432 81.8175C295.338 82.0205 296.186 82.5606 295.667 82.8924C295.103 83.2527 294.481 82.5201 294.193 81.9119C290.643 84.4817 287.316 87.9077 285.294 91.836C283.285 95.7396 283.1 100.325 282.333 104.567C278.794 100.525 274.008 98.5864 268.804 100.53C264.268 102.224 260.753 105.946 259.866 110.769C259.324 113.709 259.916 116.686 261.251 119.339C261.829 120.485 262.528 121.754 263.59 122.526C264.429 123.136 265.867 123.05 266.262 124.15C266.868 125.836 263.369 129.475 262.46 130.951C260.816 133.62 259.289 136.377 258.126 139.293C253.958 133.405 249.967 126.973 245.227 121.544C240.754 116.42 235.421 111.824 230.191 107.493C219.336 98.5031 208.048 90.0575 195.905 82.8957C184.599 76.227 170.941 72.5247 157.764 73.8337C144.888 75.1132 135.031 83.256 126.736 92.6476C110.787 110.705 101.019 136.443 100.065 160.481C99.7779 167.702 100.328 174.828 102.111 181.832C102.961 185.167 102.838 188.447 103.331 191.825C103.888 195.635 104.852 199.432 105.784 203.164C109.333 217.383 113.855 231.591 118.93 245.338C121.568 252.488 124.76 259.477 129.079 265.781C131.074 268.693 133.658 270.971 135.804 273.736C137.887 276.418 138.437 279.709 138.895 283C139.993 290.89 140.721 298.813 141.381 306.749C141.662 310.113 141.989 313.447 142.434 316.786C142.823 319.699 141.846 319.555 139.396 320.544C139.893 317.928 128.189 319.708 127.084 319.887C125.881 320.081 124.607 320.084 123.66 320.238C122.601 320.41 121.565 320.66 120.345 320.625C118.552 320.573 115.196 320.115 114.511 322.404C114.04 319.751 110.928 322.652 113.231 322.159C110.867 322.424 108.456 321.984 106.064 322.206C103.323 322.461 100.559 322.703 97.8371 323.116C95.9423 323.403 94.1342 324.133 92.2362 324.344C89.8072 324.616 87.2724 324.59 84.8199 324.807C75.7738 325.604 66.3976 327.578 57.6043 329.837C55.6124 330.349 53.3239 330.712 51.4209 331.534C50.9114 331.753 50.453 332.245 49.9649 332.433C49.1466 332.749 49.2585 332.531 48.5319 332.676C44.178 333.546 39.6865 334.968 35.3332 336.083C32.9185 336.702 28.9907 337.26 27.0208 338.946C26.1379 339.7 25.3663 341.039 26.7812 341.897C27.9115 342.582 29.5249 341.488 30.4397 340.897C29.6247 343.021 28.0875 344.079 28.9178 346.496C29.5732 348.405 31.0528 350.759 33.3292 349.527C33.6342 350.236 33.7576 351.647 34.6553 351.907C35.462 352.141 36.0461 351.119 36.8364 351.36C37.1193 351.446 37.0119 351.98 37.2652 352.12C37.7018 352.361 38.1443 352.463 38.6445 352.632C39.0744 352.778 39.7665 353.077 40.2151 353.109C40.4998 353.129 41.1705 352.642 41.1683 352.642C41.822 352.742 42.1735 353.993 42.6441 354.354C43.255 354.823 43.7596 354.93 44.5246 355.1C46.115 355.454 48.165 356.059 49.2146 354.431C48.9744 355.593 50.5555 355.479 51.2531 355.627C51.1758 355.014 50.8374 354.453 50.3153 354.117C51.875 354.22 51.2427 355.771 52.3954 356.18C53.217 356.471 53.1237 355.731 53.7522 355.649C54.5803 355.541 55.2088 356.142 56.502 355.587C56.7822 356.833 56.8848 358.089 58.4143 358.275C59.3121 358.384 61.4054 356.763 61.2869 358.112C63.2924 357.524 64.0537 357.921 65.1017 359.689C65.2788 358.604 66.136 358.918 66.9224 358.852C68.169 358.745 68.2008 358.846 69.1671 358.14C69.2554 358.076 70.0155 356.334 70.3533 357.416C70.5052 357.901 69.5011 359.042 69.1292 359.332C69.591 359.566 71.1041 360.383 71.6859 360.233C72.1894 360.103 72.191 359.243 72.7959 359.198C72.6479 359.693 72.5003 360.188 72.3517 360.683C73.5286 360.854 74.5119 360.066 75.4415 359.489C76.3277 361.73 78.8609 360.468 80.2385 362.154C80.9673 363.046 81.0013 363.724 82.3899 363.957C83.8108 364.196 85.0519 363.572 86.2595 364.744C85.8767 364.017 84.923 363.414 85.8707 362.632C86.5156 363.548 86.8485 364.65 87.5922 365.501C87.6947 365.068 87.7973 364.636 87.8998 364.202C89.8385 366.276 92.2789 366.294 94.7622 367.444V365.926C96.5401 368.64 96.635 366.923 98.759 365.814C98.6148 366.612 98.47 367.41 98.3258 368.208C99.8542 368.092 101.282 369.903 102.537 368.365C103.295 369.636 104.214 369.01 105.456 369.414C106.162 369.644 106.688 370.339 107.375 370.591C108.406 370.968 108.713 370.951 109.683 371.279C110.546 371.571 111.036 372.139 112.116 372.321C112.818 372.44 113.454 372.431 114.125 372.399C114.384 372.386 114.299 371.802 114.875 371.938C115.766 372.15 116.43 373.267 117.072 373.84C118.037 371.414 120.739 374.664 122.046 375.097C122.171 374.475 122.148 373.725 122.599 373.214C123.127 374.372 123.329 375.346 124.426 376.092C125.06 376.522 125.99 376.83 126.722 376.988C127.184 377.087 128.024 376.968 128.315 377.111C128.81 377.353 128.993 378.002 129.494 378.063C129.788 378.099 130.225 377.324 130.445 377.384C131.454 377.659 132.015 378.885 133.034 379.548C136.066 381.521 139.882 381.712 143.26 382.145C144.108 382.253 144.231 382.022 144.92 382.519C145.287 382.785 145.12 383.593 145.572 383.82C147.275 384.673 147.276 382.852 147.633 381.721C148.196 382.464 148.293 383.445 149.064 384.036C149.485 384.024 149.906 384.034 150.326 384.065C150.563 384.335 150.719 384.647 150.791 385.001C151.811 385.69 152.967 385.45 154.02 385.967C154.366 386.137 154.978 387.162 155.403 387.456C156.165 387.984 157.343 388.266 158.213 388.495C160.038 388.975 162.655 388.337 163.741 390.243C165.183 388.697 164.625 390.543 165.604 390.931C166.182 391.159 167.051 390.249 167.693 390.34C168.847 390.502 169.263 391.752 169.632 392.661C170.335 392.504 169.853 390.515 169.833 390.079C170.707 389.976 170.901 392.276 171.052 392.782C172.431 392.118 170.167 390.051 171.65 389.388C171.514 391.149 172.917 392.599 170.411 392.851C170.757 393.912 178.841 395.09 179.402 394.154C179.527 395.884 180.689 394.268 181.118 393.675C181.167 394.685 180.823 396.118 181.956 396.587C182.726 396.906 184.462 396.082 184.764 395.327C185.109 396.48 185.687 396.443 186.406 397.175C186.899 397.678 187.224 398.55 187.742 398.971C188.695 399.746 190.467 399.627 191.577 399.454C193.748 399.115 193.492 398.699 194.265 400.956C194.44 400.1 194.989 398.308 195.945 399.64C196.554 400.486 195.258 402.351 194.884 403.094C195.72 402.635 196.551 402.09 197.503 401.892C197.557 402.185 197.605 402.808 197.465 403.079C197.493 403.024 198.509 403.705 198.886 403.894C198.795 403.848 199.184 402.153 199.173 402.208C200.512 403.035 199.583 404.616 200.77 405.432C201.076 405.643 201.796 405.397 202.166 405.525C202.812 405.749 203.37 406.354 203.944 406.707C203.486 406.093 203.552 405.062 203.583 404.353C203.875 404.514 204.083 405.118 204.378 405.165C204.489 405.183 205.643 405.336 205.636 405.331C206.837 406.172 206.59 406.278 205.558 407.29C205.927 407.869 207.467 406.863 207.884 406.695C207.971 406.922 207.994 407.744 208.158 407.891C208.257 408.135 208.357 408.378 208.457 408.622C208.764 408.393 209.095 408.316 209.447 408.392C209.669 408.469 211.407 409.176 211.525 408.934C211.145 408.812 210.8 408.623 210.492 408.369C211.495 407.467 212.155 406.988 213.079 408.29C213.195 408.454 212.795 409.043 212.914 409.257C213.355 410.053 214.262 410.687 214.878 411.335C215.133 410.44 214.54 408.197 215.956 408.279C217.087 408.344 217.948 411.085 217.556 411.937C218.006 411.445 220.691 410.956 221.198 411.11C222.631 411.544 222.229 412.869 223.992 410.928C225.194 411.758 224.134 412.072 224.351 413.083C224.669 413.15 224.969 413.071 225.254 412.848C225.041 417.146 228.212 413.862 230.272 414.518C231.08 414.776 231.287 415.694 232.154 415.962C232.613 416.103 233.124 415.768 233.57 415.85C233.928 415.799 234.283 415.736 234.636 415.661C235.084 415.436 235.294 415.687 235.267 416.413C235.986 416.786 235.714 416.932 236.555 417.004C237.097 417.052 237.596 416.488 238.212 416.584C239.274 416.75 239.133 417.566 239.812 417.992C240.423 418.376 241.112 418.363 241.865 418.289C242.248 418.251 243.324 417.757 243.454 417.756C244.258 417.745 243.822 417.574 244.787 418.264C245.538 418.803 245.854 419.151 246.776 419.399C247.834 419.683 249.711 420.303 250.423 419.539C251.384 420.98 252.137 419.922 253.406 420.017C254.055 420.067 254.158 420.32 254.736 420.42C255.673 420.584 256.842 420.442 257.838 420.762C259.408 421.267 259.586 421.52 261.19 421.588C261.48 421.475 261.769 421.362 262.058 421.249C262.145 421.732 262.373 422.126 262.742 422.432C263.639 422.62 264.229 422.167 264.969 421.67C265.521 423.389 267.311 423.539 268.842 423.765C271.313 424.129 273.675 424.328 276.058 425.141C278.07 425.826 280.086 426.596 282.021 427.474C283.725 428.247 285.332 429.402 287.259 428.86C291.626 427.63 295.857 423.148 299.51 420.575C303.837 417.526 308.504 415.015 313.025 412.274C331.024 401.364 350.039 392.135 367.786 380.819C377.474 374.641 386.465 367.3 396.87 362.302C395.388 368.423 392.867 374.637 393.323 381.045C393.506 383.627 394.266 386.678 396.269 388.481C398.745 390.71 401.503 389.291 403.871 387.698C408.946 384.286 412.33 379.308 416.127 374.633C420.619 369.103 424.103 363.162 427.402 356.859C428.192 357.968 427.591 359.827 427.603 361.057C427.618 362.626 428.042 364.139 428.769 365.54C430.648 369.156 434.224 370.033 437.455 367.555C443.673 362.787 447.281 354.295 450.613 347.456C452.513 350.991 455.21 355.441 459.773 352.916C463.539 350.833 465.751 346.177 466.903 342.234C470.266 330.724 469.2 318.999 469.717 307.201Z" fill="black"/>
<path fill-rule="evenodd" clip-rule="evenodd" d="M464.006 238.063C463.577 237.02 463.388 237.191 464.178 236.179C464.793 236.785 464.301 237.286 464.006 238.063ZM483.036 301.193C481.829 297.76 482.574 294.032 481.841 290.51C481.505 288.895 480.973 287.327 480.782 285.683C480.697 284.953 480.047 281.667 480.489 281.15C479.127 280.325 479.123 279.715 478.808 278.097C479.293 277.583 479.232 277.143 478.625 276.779C478.228 276.298 477.83 275.817 477.433 275.337C479.17 276.186 478.142 274.012 477.965 272.759C477.825 271.768 477.73 270.735 477.4 269.786C476.994 268.619 476.09 268.029 477.97 268.029C477.351 267.325 476.426 266.599 476.118 265.737C475.675 264.497 476.406 262.859 475.502 261.763C474.998 261.153 472.4 260.913 472.856 259.594C473.088 258.922 474.141 259.423 474.467 258.952C475.747 257.101 471.966 256.334 471.781 255.546C471.541 254.525 472.906 254.297 472.99 253.342C473.072 252.408 471.619 250.872 471.235 250.036C470.712 250.163 470.139 250.991 469.54 250.596C469.426 250.521 469.597 247.286 469.461 246.856C469.327 246.434 469.053 245.314 468.956 245.107C468.568 244.284 467.459 243.883 467.282 242.911C467.177 242.33 469.451 241.452 466.843 241.424C467.78 239.774 466.064 238.771 465.439 237.36C464.636 235.547 464.163 233.588 463.338 231.765C462.537 229.993 461.64 228.311 460.484 226.744C459.437 225.326 458.985 223.961 458.149 222.463C457.981 222.331 457.814 222.2 457.647 222.068C456.949 222.169 456.726 221.851 456.976 221.115C456.442 220.325 456.045 219.481 455.575 218.656C455.028 217.697 454.291 216.915 453.726 215.982C452.976 214.745 452.754 213.351 451.907 212.11C450.866 210.584 449.694 209.238 448.729 207.655C447.519 205.671 446.179 204.438 444.657 202.902C443.932 202.171 443.845 200.343 442.957 199.305C441.99 198.173 441.035 197.867 440.365 196.381C439.493 194.449 438.214 193.527 436.968 191.857C435.941 190.479 435.439 188.896 434.307 187.563C433.333 186.419 432.228 185.373 431.189 184.288C429.877 182.917 428.909 181.252 427.543 179.949C427.74 180.137 426.355 179.039 426.424 179.074C426.118 178.918 425.129 178.792 425.273 178.877C423.212 177.666 420.629 173.232 417.528 175.581C415.897 176.817 416.679 179.083 417.818 180.313C418.307 180.842 420.849 183.448 421.398 182.349C421.991 183.189 423.817 187.251 425.335 186.087C425.181 187.475 425.985 187.015 426.516 187.953C426.865 188.572 426.695 188.876 426.949 189.842C427.65 192.499 430.322 195.093 431.745 197.41C435.287 203.175 439.194 208.643 442.74 214.416C446.119 219.917 449.903 225.136 453.144 230.712C456.831 237.051 461.425 243.036 464.203 249.87C464.296 250.1 465.068 250.463 465.259 250.808C465.593 251.408 465.522 252.444 465.737 253.123C466.482 255.477 467.69 257.794 469.067 259.744C470.274 261.454 470.362 263.779 471.193 265.786C472.365 268.614 473.602 271.412 474.741 274.255C476.513 278.679 477.713 282.919 478.938 287.538C479.732 290.531 480.363 293.523 480.616 296.614C480.848 299.456 480.905 302.417 481.957 305.108C482.674 304 483.519 302.565 483.036 301.193Z" fill="black"/>
<path fill-rule="evenodd" clip-rule="evenodd" d="M77.6821 362.101C76.4087 361.843 75.2104 361.5 74.9406 360.038C74.7558 360.727 74.5715 361.417 74.3867 362.106C75.9371 362.457 77.488 362.809 79.0384 363.16C78.6764 362.522 78.4121 362.248 77.6821 362.101Z" fill="black"/>
<path fill-rule="evenodd" clip-rule="evenodd" d="M81.0991 122.147C81.1956 121.734 81.3206 121.33 81.4747 120.936C81.5795 121.32 82.0928 122.152 81.7939 122.514C81.4133 122.974 81.0283 122.714 81.0991 122.147ZM87.3417 110.269C87.7596 110.453 88.6639 110.489 89.1827 110.645C87.8369 111.802 87.6 111.462 85.8599 111.327C85.7826 110.156 86.2586 109.792 87.3417 110.269ZM75.6764 139.268C75.8568 139.273 76.0378 139.277 76.2193 139.282C76.2303 138.772 76.2171 138.262 76.1787 137.753C78.0137 138.154 76.975 134.948 76.3986 134.283C78.1886 134.343 79.0606 128.675 79.6277 127.584C80.1311 126.614 80.7015 126.239 81.0695 125.056C81.3914 124.022 81.7396 123.09 82.2041 122.111C83.2714 119.861 84.6715 117.817 84.4132 115.194C85.3175 117.162 86.1127 115.197 86.6863 114.256C87.6104 112.74 89.865 110.805 90.1046 109.004C90.3163 107.418 89.1383 107.334 89.8337 105.864C90.5368 104.376 91.1148 104.525 92.3465 104.049C93.1659 103.732 93.3287 104.117 93.9068 103.083C94.2813 102.413 94.1492 101.914 94.629 101.365C94.827 101.537 95.0524 101.608 95.3047 101.579C95.6941 101.065 95.9496 100.492 96.0708 99.8612C96.3884 99.0089 96.5419 98.2264 97.0201 97.4147C97.4737 96.6458 98.2787 94.5887 98.7054 94.218C99.1584 93.8242 101.728 94.0244 101.717 94.0387C102.778 92.7038 100.831 91.3739 103.527 91.6552C102.995 90.6637 104.865 89.4331 105.408 88.8814C106.764 87.5043 106.872 86.867 107.159 85.1351C107.304 84.2522 106.355 84.3542 107.627 84.1529C108.153 84.0701 108.657 84.7425 109.037 84.6438C110.712 84.2094 108.96 84.2922 109.422 83.6095C109.568 83.3928 110.313 82.5187 110.306 82.528C110.27 82.5719 110.474 81.7673 110.643 81.5606C110.963 81.5332 111.278 81.4772 111.588 81.3928C111.746 81.0747 111.885 80.7489 112.006 80.4155C113.218 79.4042 115.032 78.9518 115.871 77.8407C116.413 77.1223 116.251 76.4186 116.952 75.7024C117.619 75.0202 118.502 75.5143 118.634 73.9733C118.803 72.0127 116.697 71.1401 115.835 73.1188C113.499 70.2413 103.734 80.7988 102.606 82.1781C97.7056 88.1657 92.8895 94.3013 88.8701 100.922C84.9539 107.374 81.7396 114.162 79.2273 121.278C78.0159 124.709 77.2783 128.124 76.5385 131.673C76.29 132.862 74.4337 138.158 75.2064 139.343C75.3627 139.318 75.5195 139.293 75.6764 139.268Z" fill="black"/>
<path fill-rule="evenodd" clip-rule="evenodd" d="M461.379 286.1C462.205 285.55 462.205 285.55 462.35 284.51C461.243 284.711 461.243 284.711 461.379 286.1Z" fill="black"/>
<path fill-rule="evenodd" clip-rule="evenodd" d="M54.5449 356.092C54.5553 356.091 54.563 356.094 54.569 356.1C54.5514 356.077 54.4878 356.011 54.5449 356.092Z" fill="black"/>
<path fill-rule="evenodd" clip-rule="evenodd" d="M53.9911 356.65C54.2461 357.201 54.6558 357.339 55.2207 357.06C55.4433 357.379 53.2891 355.076 53.9911 356.65Z" fill="black"/>
<path fill-rule="evenodd" clip-rule="evenodd" d="M91.2425 105.095C89.9499 107.629 91.5688 105.786 91.486 106.609C91.5403 106.068 91.7646 105.298 91.2425 105.095Z" fill="black"/>
<path fill-rule="evenodd" clip-rule="evenodd" d="M301.39 144.318C301.95 148.862 308.167 146.713 309.566 143.965C310.584 141.963 313.156 134.056 310.389 132.385C308.338 131.147 307.9 136.484 307.394 137.676C306.547 139.673 305.885 138.258 304.001 138.77C301.922 139.336 301.159 142.434 301.39 144.318Z" fill="black"/>
<path fill-rule="evenodd" clip-rule="evenodd" d="M294.598 136.001C296.82 136.494 298.998 136.24 300.577 134.485C301.451 133.513 302.614 131.585 301.04 130.645C299.614 129.793 297.996 131.788 296.494 131.375C294.452 130.814 295.503 128.624 294.803 127.177C292.227 128.66 290.79 135.155 294.598 136.001Z" fill="black"/>
<path fill-rule="evenodd" clip-rule="evenodd" d="M296.902 147.475C294.76 147.471 294.742 150.105 295.861 151.234C296.931 152.315 299.636 153.408 301.087 152.568C303.949 150.91 298.636 147.646 296.902 147.475Z" fill="black"/>
<path fill-rule="evenodd" clip-rule="evenodd" d="M172.265 252.243C172.722 252.465 174.07 253.608 174.638 253.092C173.836 252.284 173.034 251.476 172.232 250.668C171.789 251.154 171.485 251.864 172.265 252.243Z" fill="black"/>
<path fill-rule="evenodd" clip-rule="evenodd" d="M162.141 136.658C161.914 136.828 161.686 136.998 161.458 137.167C162.226 137.807 162.207 137.997 162.982 137.391C162.752 137.089 162.472 136.845 162.141 136.658Z" fill="black"/>
<path fill-rule="evenodd" clip-rule="evenodd" d="M307.323 287.426C306.892 286.652 306.079 288.078 305.529 288.31C304.634 288.687 303.9 286.691 304.156 289.083C302.133 288.157 300.905 290.282 299.601 291.389C297.758 292.953 295.503 293.801 294.273 296.023C300.061 297.377 306.42 292.387 310.735 289.11C311.439 288.575 314.959 285.875 312.573 285.614C311.598 285.507 308.047 288.725 307.323 287.426Z" fill="black"/>
<path fill-rule="evenodd" clip-rule="evenodd" d="M305.606 282.741C306.741 281.848 304.295 281.766 303.909 281.673C303.942 282.383 303.974 283.092 304.008 283.803C304.555 283.471 305.088 283.117 305.606 282.741Z" fill="black"/>
<path fill-rule="evenodd" clip-rule="evenodd" d="M301.348 285.719C301.687 285.507 302.632 284.847 301.989 284.354C301.408 284.724 300.993 285.327 300.902 286.015C301.05 285.917 301.199 285.818 301.348 285.719Z" fill="black"/>
<path fill-rule="evenodd" clip-rule="evenodd" d="M207.617 228.131C206.892 228.415 206.568 228.864 206.644 229.48C207.757 229.252 207.545 228.201 207.617 228.131Z" fill="black"/>
<path fill-rule="evenodd" clip-rule="evenodd" d="M445.273 74.5886C455.592 81.9103 467.429 86.9121 478.212 93.506C480.912 95.1564 489.321 98.5832 489.24 101.645C489.192 103.435 486.665 105.679 485.558 106.92C483.663 109.045 481.879 111.192 480.13 113.44C472.122 123.735 464.581 134.127 455.902 143.904C454.596 145.375 450.659 152.398 449.389 148.91C448.813 147.328 449.287 145.551 447.786 144.077C447.013 143.317 444.028 142.899 444.897 141.27C445.477 141.53 446.057 141.791 446.638 142.051C446.187 140.749 446.22 139.323 445.545 138.093C445.125 137.328 444.305 136.967 444.021 136.106C443.627 134.916 444.294 133.534 444.183 132.308C444.072 131.085 443.438 129.93 443.059 128.776C440.814 121.938 440.008 115.045 438.858 107.99C437.721 101.01 435.949 94.2474 435.253 87.1889C434.518 79.7334 433.618 72.2931 432.416 64.8973C434.561 65.1979 436.209 67.5258 437.726 68.8419C440.111 70.9101 442.7 72.7634 445.273 74.5886ZM437.183 146.768C436.69 146.382 436.305 145.907 436.027 145.345C441.085 142.842 438.033 147.112 437.183 146.768ZM434.107 141.43C431.903 142.037 430.319 142.16 428.619 141.254C428.457 141.169 428.643 140.506 428.352 140.37C428.098 140.252 427.71 140.398 427.493 140.288C426.753 139.912 425.457 140.736 425.331 139.296C428.144 138.436 430.911 136.849 433.882 136.581C438.01 136.21 437.819 140.408 434.107 141.43ZM424.448 133.131C421.44 133.834 418.962 135.475 415.766 135.046C412.765 134.645 410.158 133.091 407.792 131.3C413.712 129.626 419.921 129.324 425.836 127.705C427.762 127.178 430.293 125.787 432.368 126.348C434.674 126.97 434.82 129.128 435.511 131.091C431.82 131.754 428.102 132.278 424.448 133.131ZM405.634 124.801C402.744 125.49 399.79 126.998 397.374 124.396C396.983 123.976 396.642 124.395 396.688 123.101C396.737 121.737 397.976 120.858 399.043 120.378C401.55 119.249 405.064 119.979 407.726 119.813C411.973 119.549 416.296 118.667 420.497 117.988C423.406 117.519 426.411 116.476 429.383 116.681C431.679 116.84 434.448 118.794 431.103 120.22C428.056 121.518 423.489 121.319 420.188 121.882C415.31 122.713 410.449 123.651 405.634 124.801ZM402.811 111.22C402.998 111.411 403.185 111.601 403.373 111.792C403.342 111.785 404.481 110.863 404.782 110.837C406.247 110.71 407.721 110.81 409.189 110.728C412.57 110.537 415.977 109.949 419.298 109.301C422.003 108.773 424.758 107.863 427.542 108.091C429.953 108.288 430.206 108.782 430.364 111.105C424.211 111.105 417.873 110.976 411.826 112.277C407.889 113.123 403.55 115.644 401.578 111.099C401.989 111.14 402.4 111.18 402.811 111.22ZM406.658 101.383C408.183 102.544 412.343 100.613 414.172 100.421C416.157 100.211 418.026 99.9927 419.95 99.4987C421.656 99.06 427.302 96.8695 428.611 98.9644C430.617 102.174 422.492 102.763 421.204 102.922C415.802 103.589 410.197 104.18 404.941 105.595C405.513 104.191 406.085 102.787 406.658 101.383ZM414.068 90.4812C414.462 91.9648 426.679 86.4978 426.902 90.4711C427.073 93.5196 414.814 95.0385 412.611 94.771C413.127 93.3672 414.5 92.1101 414.068 90.4812ZM418.17 81.1559C418.43 78.1635 418.831 78.1808 421.234 77.8989C423.066 77.6839 425.585 76.6109 425.108 79.873C424.7 82.6662 417.908 84.1757 418.17 81.1559ZM422.536 70.8598C423.114 69.2532 424.415 71.4157 424.443 72.2327C424.516 74.4067 422.865 73.9363 421.277 73.9363C421.719 72.9209 422.14 71.8939 422.536 70.8598ZM442.643 58.8003C442.319 58.4105 440.501 58.2617 439.983 58.0725C438.71 57.6065 438.891 56.6134 437.262 57.5928C437.181 57.5109 437.335 56.7745 437.247 56.7407C437.202 56.7234 436.061 56.2933 435.69 56.056C434.795 55.4836 433.989 54.9233 433.167 54.2049C432.293 53.4419 431.417 52.3344 430.419 51.7267C429.997 51.4707 429.653 51.1075 429.146 51.0291C427.829 50.8263 428.206 51.7425 427.055 51.9245C426.346 52.0367 425.829 51.2096 424.902 51.5663C424.101 51.8741 423.636 52.9967 423.279 53.6648C421.98 56.0963 420.979 58.7133 419.708 61.1706C413.21 73.7364 405.823 85.8254 399.529 98.5084C396.497 104.618 393.333 110.771 391.199 117.264C389.661 121.947 386.186 128.788 389.175 133.468C391.349 136.87 395.701 138.34 399.174 139.983C404.399 142.457 409.215 145.691 414.498 148.089C420.797 150.949 426.914 153.941 433.054 157.135C435.672 158.497 438.035 160.459 440.645 161.749C442.241 162.538 444.707 161.191 445.226 163C447.227 160.579 450.466 162.193 452.781 160.489C454.142 159.486 455.137 157.511 456.272 156.277C457.976 154.426 459.825 152.708 461.563 150.889C468.461 143.666 474.831 136.142 481.107 128.383C487.101 120.973 494.105 113.973 499.168 105.862C501.179 102.643 501.543 99.2664 500.216 95.7095C499.247 93.1148 496.913 89.1968 493.579 90.9149C494.843 88.8178 489.966 86.5784 488.487 86.1684C488.464 86.1627 488.173 87.7736 487.76 87.7333C487.907 87.7477 486.52 84.1642 485.911 83.7046C484.103 82.3375 481.902 80.7424 479.929 79.6169C478.119 78.585 476.209 78.0736 474.456 76.9187C472.33 75.5192 470.379 73.8594 468.246 72.4693C466.186 71.1273 463.89 69.5409 461.613 68.6182C459.639 67.8178 457.866 67.661 456.09 66.3493C453.893 64.7261 451.976 63.6251 449.442 62.5068C447.25 61.5396 444.211 60.6946 442.643 58.8003Z" fill="black"/>
<path fill-rule="evenodd" clip-rule="evenodd" d="M70.2499 251.441C70.5225 250.802 70.794 250.163 71.0666 249.524C71.4034 250.638 71.4978 251.192 70.2499 251.441ZM70.6125 254.393C70.0222 254.498 70.2548 252.649 70.2548 252.327C71.2744 252.903 70.43 253.594 70.6125 254.393ZM69.6922 249.058C70.1954 248.761 70.6986 248.465 71.2019 248.168C70.5011 249.464 70.776 248.654 71.0651 249.52C70.5366 249.672 70.0227 249.495 69.6922 249.058ZM66.7099 259.192C64.8235 266.026 58.8321 271.416 52.5038 274.208C48.8674 275.812 45.2923 276.213 41.3653 276.034C39.8508 275.965 38.0686 275.474 36.611 275.565C35.4887 275.636 35.5394 275.684 34.6098 276.633C34.1986 275.877 34.4964 275.346 33.6715 274.906C32.6422 274.357 32.2149 274.996 31.7044 275.757C31.0362 275.065 30.7626 274.704 29.8969 274.293C29.9241 274.306 29.068 274.274 29.1031 274.285C28.9483 274.237 28.0173 273.639 27.7258 273.53C26.5296 273.082 25.1464 272.898 24.0427 272.255C23.0771 271.694 22.2819 270.118 21.1771 271.329C21.1761 269.305 18.4464 268.466 17.1669 267.406C15.1677 265.75 13.5782 263.298 12.5815 260.926C11.5186 258.396 11.1638 255.971 10.6664 253.364C10.3189 251.543 8.04323 248.91 9.40982 247.072C9.7354 247.843 9.58259 248.632 10.1233 249.331C10.61 248.394 10.8776 247.347 11.0976 246.322C11.2056 245.82 11.8315 244.346 11.7605 243.909C11.6159 243.014 10.5063 242.965 11.1214 241.868C12.3975 243.254 13.4273 240.819 12.4632 239.849C11.9872 240.385 11.8125 240.994 11.593 241.658C10.3384 239.129 13.8108 239.943 13.0511 237.66C14.3184 237.417 15.047 237.098 15.5288 235.847C16.0646 234.456 15.6704 234.153 16.8871 233.233C17.3056 232.917 18.4892 232.463 18.7058 231.943C19.1248 230.939 18.0585 230.641 18.9924 229.699C19.3078 230.252 20.5371 231.346 21.2102 230.305C21.345 230.097 20.779 229.95 21.1907 229.472C21.8005 228.764 22.4829 228.07 23.5141 228.219C22.6975 226.18 27.9156 226.019 29.252 225.538C30.5913 225.056 31.7277 224.74 33.1478 224.628C34.5665 224.516 34.6371 224.101 35.8382 223.248C35.9399 224.469 36.2338 224.2 37.1026 224.416C37.3113 224.058 37.5255 224.018 37.7445 224.295C37.9625 224.502 38.2292 224.599 38.5436 224.588C39.0205 224.613 39.5617 224.55 40.0615 224.561C41.2349 224.583 42.4453 224.486 43.5962 224.511C43.8931 224.461 44.1705 224.358 44.4304 224.201C44.5389 224.405 44.648 224.61 44.756 224.814C45.3658 224.891 45.413 225.654 46.163 224.819C46.3849 225.88 47.0224 225.328 47.696 225.616C48.3102 225.879 48.408 226.298 48.975 226.591C49.3478 226.893 49.7473 226.933 50.1746 226.712C50.581 227.013 50.9937 227.305 51.4122 227.588C52.1836 228.023 53.0927 228.289 53.9055 228.633C54.4462 228.856 54.9835 229.087 55.5164 229.328C55.5324 229.97 55.821 230.197 56.3817 230.008C56.8883 230.431 57.0309 230.415 57.5224 231.135C58.6359 232.769 59.6239 234.038 61.0304 235.497C67.1435 241.844 69.0216 250.817 66.7099 259.192ZM68.586 232.204C65.8261 228.513 61.9195 224.287 58.4092 221.956C56.6299 220.774 54.1323 218.653 51.9563 218.028C51.4405 217.88 50.9066 217.87 50.3995 217.715C50.0077 217.595 49.7945 217.193 49.3478 217.121C49.0353 217.07 49.0008 217.769 48.6689 217.704C47.9749 217.569 47.5349 216.882 47.0448 216.452C45.9921 218.263 45.4208 215.217 43.8751 217.265C42.0355 214.384 37.7138 215.014 34.7763 215.159C33.9051 215.202 33.4958 215.512 32.7235 215.741C32.0046 215.954 31.9336 215.9 31.1486 215.894C29.1936 215.879 27.4581 216.124 25.6511 216.981C22.6152 218.421 19.8285 220.665 16.945 222.4C13.7222 224.34 10.8173 226.809 8.35179 229.645C-0.561165 239.902 -2.94441 254.874 4.16249 266.765C15.4509 285.65 44.5691 287.668 61.0688 274.854C73.8163 264.953 78.6674 245.682 68.586 232.204Z" fill="black"/>
<path fill-rule="evenodd" clip-rule="evenodd" d="M336.011 7.21321C333.288 6.21721 329.919 4.27221 326.892 4.93521C323.675 5.63921 322.38 8.86121 320.041 10.7982C313.682 16.0652 309.978 8.21521 306.484 3.91321C303.184 -0.148794 299.158 -1.13479 294.502 1.36121C292.647 2.35621 284.832 6.91521 286.195 9.83621C287.175 11.9382 291.036 10.0512 292.353 9.59221C295.212 8.59721 297.867 7.72621 300.791 9.17721C306.276 11.8972 307.699 19.3562 314.335 20.5192C321.197 21.7222 321.422 15.1922 326.319 12.7342C329.602 11.0872 331.889 14.0032 335.056 13.4222C338.074 12.8692 339.47 8.47721 336.011 7.21321Z" fill="black"/>
<path fill-rule="evenodd" clip-rule="evenodd" d="M280.612 33.5303C283.039 34.0573 284.623 29.3503 286.142 28.1563C288.662 26.1773 293.031 25.7783 295.597 27.7703C300.608 31.6583 298.881 40.0523 306.016 42.2403C312.393 44.1963 315.397 35.7973 320.765 33.7063C323.886 32.4903 327.312 31.6943 326.094 27.3313C325.253 24.3143 322.775 23.5393 320.081 24.6983C315.451 26.6883 313.879 34.7953 308.39 34.9403C302.711 35.0903 302.095 26.9033 299.657 23.3373C295.94 17.9023 288.299 16.5893 283.957 21.7863C282.646 23.3543 275.99 32.5293 280.612 33.5303Z" fill="black"/>
</svg>
